<svg xmlns="http://www.w3.org/2000/svg" viewBox="0 0 290.01 70"><title>logo</title><path d="M239,49h-5l-1.95-2.14a14.49,14.49,0,1,1,2.89-2.32Zm-4-14.5a10.52,10.52,0,1,0-5.7,9.33L224,38h5l3.25,3.57A10.45,10.45,0,0,0,235,34.5Z" fill-rule="evenodd"/><path d="M104,41l9.5-21L118,20,104,50,90,20l4.5,0Z"/><path d="M124,20h4V39a7.13,7.13,0,0,0,1.49,4.48C130.4,44.56,132.26,45,134,45s3.58-.44,4.48-1.52A7.23,7.23,0,0,0,140,39V20h4l0,19a10.7,10.7,0,0,1-1.27,5.35,8.71,8.71,0,0,1-3.53,3.46,11.58,11.58,0,0,1-10.37,0,8.87,8.87,0,0,1-3.53-3.46A10.48,10.48,0,0,1,124,39Z"/><path d="M155,36v9h14v4H151V20h18v4H155v8h13v4Z"/><path d="M175,24V20h20v4h-8V49h-4V24Z"/><path d="M200,20h4V49h-4Z"/><path d="M245,20h4V39a7.13,7.13,0,0,0,1.49,4.48C251.4,44.56,253.26,45,255,45s3.58-.44,4.48-1.52A7.23,7.23,0,0,0,261,39V20h4l0,19a10.7,10.7,0,0,1-1.27,5.35,8.71,8.71,0,0,1-3.53,3.46,11.58,11.58,0,0,1-10.37,0,8.87,8.87,0,0,1-3.53-3.46A10.48,10.48,0,0,1,245,39Z"/><path d="M276,36v9h14v4H272V20h18v4H276v8h13v4Z"/><path d="M65,54.62A1.25,1.25,0,0,1,63.79,56H6.19A1.25,1.25,0,0,1,5,54.62L9.14,1.17A1.23,1.23,0,0,1,10.33,0H59.48a1.23,1.23,0,0,1,1.19,1.17Z" fill="#1dcf65"/><path d="M70,68.29A1.55,1.55,0,0,1,68.52,70h-67A1.55,1.55,0,0,1,0,68.29L4.73,5A1.53,1.53,0,0,1,6.21,3.51H63.6A1.53,1.53,0,0,1,65.08,5Z" fill="#5aed86"/><path d="M53,28.18a.94.94,0,0,1-1.39,0l-4.36-4.65-4.41,4.7a.94.94,0,0,1-1.39,0,1.1,1.1,0,0,1,0-1.49l5.1-5.44a.94.94,0,0,1,1.39,0L53,26.69A1.1,1.1,0,0,1,53,28.18Zm-5.77-.41a1,1,0,0,1,1,1C48.23,39.95,41.15,49,32.46,49S16.69,39.95,16.69,28.82a1,1,0,1,1,2,0c0,10,6.19,18.09,13.8,18.09s13.8-8.11,13.8-18.09A1,1,0,0,1,47.24,27.77Z" fill="#fff" fill-rule="evenodd"/></svg>