<svg xmlns="http://www.w3.org/2000/svg" viewBox="0 0 200.01 30.01"><title>logo_text</title><path d="M149,29h-5l-1.95-2.14a14.49,14.49,0,1,1,2.89-2.32Zm-4-14.5a10.52,10.52,0,1,0-5.7,9.33L134,18h5l3.25,3.57A10.45,10.45,0,0,0,145,14.52Z" fill-rule="evenodd"/><path d="M14,21,23.5,0,28,0,14,30,0,0,4.5,0Z"/><path d="M34,0h4V19a7.13,7.13,0,0,0,1.49,4.48C40.4,24.57,42.25,25,44,25s3.58-.44,4.48-1.52A7.23,7.23,0,0,0,50,19V0h4l0,19a10.7,10.7,0,0,1-1.27,5.35,8.71,8.71,0,0,1-3.53,3.46,11.58,11.58,0,0,1-10.37,0,8.87,8.87,0,0,1-3.53-3.46A10.48,10.48,0,0,1,34,19Z"/><path d="M65,16v9H79v4H61V0H79V4H65v8H78v4Z"/><path d="M85,4V0h20V4H97V29H93V4Z"/><path d="M110,0h4V29h-4Z"/><path d="M155,0h4V19a7.13,7.13,0,0,0,1.49,4.48C161.4,24.57,163.25,25,165,25s3.58-.44,4.48-1.52A7.23,7.23,0,0,0,171,19V0h4l0,19a10.7,10.7,0,0,1-1.27,5.35,8.71,8.71,0,0,1-3.53,3.46,11.58,11.58,0,0,1-10.37,0,8.87,8.87,0,0,1-3.53-3.46A10.48,10.48,0,0,1,155,19Z"/><path d="M186,16v9h14v4H182V0h18V4H186v8h13v4Z"/></svg>