<svg xmlns="http://www.w3.org/2000/svg" width="40" height="40" viewBox="0 0 40 40">
  <metadata><?xpacket begin="﻿" id="W5M0MpCehiHzreSzNTczkc9d"?>
<x:xmpmeta xmlns:x="adobe:ns:meta/" x:xmptk="Adobe XMP Core 5.6-c140 79.160451, 2017/05/06-01:08:21        ">
   <rdf:RDF xmlns:rdf="http://www.w3.org/1999/02/22-rdf-syntax-ns#">
      <rdf:Description rdf:about=""/>
   </rdf:RDF>
</x:xmpmeta>
                                                                                                    
                                                                                                    
                                                                                                    
                                                                                                    
                                                                                                    
                                                                                                    
                                                                                                    
                                                                                                    
                                                                                                    
                                                                                                    
                                                                                                    
                                                                                                    
                                                                                                    
                                                                                                    
                                                                                                    
                                                                                                    
                                                                                                    
                                                                                                    
                                                                                                    
                                                                                                    
                           
<?xpacket end="w"?></metadata>
<defs>
    <style>
      .cls-1 {
        fill: #666;
        fill-rule: evenodd;
      }
    </style>
  </defs>
  <path id="Forma_1" data-name="Forma 1" class="cls-1" d="M390,4410a20,20,0,1,1,20-20A20,20,0,0,1,390,4410Zm0-39a19,19,0,1,0,19,19A19,19,0,0,0,390,4371Zm3.7,14.1h-1.292a0.892,0.892,0,0,0-1.054,1.11v1.54h2.256a0.3,0.3,0,0,1,.214.1,0.332,0.332,0,0,1,.088.23v2.63a0.318,0.318,0,0,1-.3.33h-2.255v6.63a0.318,0.318,0,0,1-.3.33h-2.517a0.318,0.318,0,0,1-.3-0.33v-6.63H386.3a0.318,0.318,0,0,1-.3-0.33v-2.63a0.318,0.318,0,0,1,.3-0.33h1.929v-1.81c0-2.39,1.393-3.94,3.549-3.94H393.7a0.318,0.318,0,0,1,.3.33v2.44A0.318,0.318,0,0,1,393.7,4385.1Z" transform="translate(-370 -4370)"/>
</svg>
