<svg xmlns="http://www.w3.org/2000/svg" width="40" height="40" viewBox="0 0 40 40">
  <metadata><?xpacket begin="﻿" id="W5M0MpCehiHzreSzNTczkc9d"?>
<x:xmpmeta xmlns:x="adobe:ns:meta/" x:xmptk="Adobe XMP Core 5.6-c140 79.160451, 2017/05/06-01:08:21        ">
   <rdf:RDF xmlns:rdf="http://www.w3.org/1999/02/22-rdf-syntax-ns#">
      <rdf:Description rdf:about=""/>
   </rdf:RDF>
</x:xmpmeta>
                                                                                                    
                                                                                                    
                                                                                                    
                                                                                                    
                                                                                                    
                                                                                                    
                                                                                                    
                                                                                                    
                                                                                                    
                                                                                                    
                                                                                                    
                                                                                                    
                                                                                                    
                                                                                                    
                                                                                                    
                                                                                                    
                                                                                                    
                                                                                                    
                                                                                                    
                                                                                                    
                           
<?xpacket end="w"?></metadata>
<defs>
    <style>
      .cls-1 {
        fill: #666;
        fill-rule: evenodd;
      }
    </style>
  </defs>
  <path id="Forma_1" data-name="Forma 1" class="cls-1" d="M490,4410a20,20,0,1,1,20-20A20,20,0,0,1,490,4410Zm0-39a19,19,0,1,0,19,19A19,19,0,0,0,490,4371Zm1.369,22.69a4.336,4.336,0,0,1-2.157-1c-0.422,2.16-.938,4.24-2.466,5.32-0.471-3.27.693-5.72,1.234-8.33-0.922-1.52.11-4.57,2.053-3.82,2.391,0.93-2.072,5.64.924,6.23,3.127,0.61,4.405-5.31,2.465-7.23-2.8-2.78-8.157-.07-7.5,3.91,0.161,0.98,1.187,1.27.41,2.62-1.793-.39-2.328-1.78-2.26-3.62a5.959,5.959,0,0,1,5.444-5.42c3.379-.37,6.546,1.21,6.984,4.32C497,4390.17,494.979,4393.97,491.369,4393.69Z" transform="translate(-470 -4370)"/>
</svg>
