<svg xmlns="http://www.w3.org/2000/svg" width="40" height="40" viewBox="0 0 40 40">
  <metadata><?xpacket begin="﻿" id="W5M0MpCehiHzreSzNTczkc9d"?>
<x:xmpmeta xmlns:x="adobe:ns:meta/" x:xmptk="Adobe XMP Core 5.6-c140 79.160451, 2017/05/06-01:08:21        ">
   <rdf:RDF xmlns:rdf="http://www.w3.org/1999/02/22-rdf-syntax-ns#">
      <rdf:Description rdf:about=""/>
   </rdf:RDF>
</x:xmpmeta>
                                                                                                    
                                                                                                    
                                                                                                    
                                                                                                    
                                                                                                    
                                                                                                    
                                                                                                    
                                                                                                    
                                                                                                    
                                                                                                    
                                                                                                    
                                                                                                    
                                                                                                    
                                                                                                    
                                                                                                    
                                                                                                    
                                                                                                    
                                                                                                    
                                                                                                    
                                                                                                    
                           
<?xpacket end="w"?></metadata>
<defs>
    <style>
      .cls-1 {
        fill: #666;
        fill-rule: evenodd;
      }
    </style>
  </defs>
  <path id="Forma_1" data-name="Forma 1" class="cls-1" d="M540,4410a20,20,0,1,1,20-20A20,20,0,0,1,540,4410Zm0-39a19,19,0,1,0,19,19A19,19,0,0,0,540,4371Zm7.106,24.58a60.594,60.594,0,0,1-14.244,0,1.948,1.948,0,0,1-1.612-1.55,32.784,32.784,0,0,1,0-8.09,1.959,1.959,0,0,1,1.612-1.56,61.689,61.689,0,0,1,14.244,0,1.958,1.958,0,0,1,1.611,1.56,32.784,32.784,0,0,1,0,8.09A1.947,1.947,0,0,1,547.106,4395.58Zm-8.62-8.43v5.66l4.492-2.83Z" transform="translate(-520 -4370)"/>
</svg>
