<svg xmlns="http://www.w3.org/2000/svg" width="40" height="40" viewBox="0 0 40 40">
  <metadata><?xpacket begin="﻿" id="W5M0MpCehiHzreSzNTczkc9d"?>
<x:xmpmeta xmlns:x="adobe:ns:meta/" x:xmptk="Adobe XMP Core 5.6-c140 79.160451, 2017/05/06-01:08:21        ">
   <rdf:RDF xmlns:rdf="http://www.w3.org/1999/02/22-rdf-syntax-ns#">
      <rdf:Description rdf:about=""/>
   </rdf:RDF>
</x:xmpmeta>
                                                                                                    
                                                                                                    
                                                                                                    
                                                                                                    
                                                                                                    
                                                                                                    
                                                                                                    
                                                                                                    
                                                                                                    
                                                                                                    
                                                                                                    
                                                                                                    
                                                                                                    
                                                                                                    
                                                                                                    
                                                                                                    
                                                                                                    
                                                                                                    
                                                                                                    
                                                                                                    
                           
<?xpacket end="w"?></metadata>
<defs>
    <style>
      .cls-1 {
        fill: #666;
        fill-rule: evenodd;
      }
    </style>
  </defs>
  <path id="Forma_1" data-name="Forma 1" class="cls-1" d="M440,4410a20,20,0,1,1,20-20A20,20,0,0,1,440,4410Zm0-39a19,19,0,1,0,19,19A19,19,0,0,0,440,4371Zm4,27h-8a4.012,4.012,0,0,1-4-4v-8a4.012,4.012,0,0,1,4-4h8a4.012,4.012,0,0,1,4,4v8A4.012,4.012,0,0,1,444,4398Zm2.667-12a2.673,2.673,0,0,0-2.667-2.67h-8a2.673,2.673,0,0,0-2.667,2.67v8a2.673,2.673,0,0,0,2.667,2.67h8a2.673,2.673,0,0,0,2.667-2.67v-8Zm-2.333.67a1,1,0,1,1,1-1A1,1,0,0,1,444.334,4386.67ZM440,4394a4,4,0,1,1,4-4A4,4,0,0,1,440,4394Zm0-6.67a2.67,2.67,0,1,0,2.667,2.67A2.671,2.671,0,0,0,440,4387.33Z" transform="translate(-420 -4370)"/>
</svg>
